<svg width="1920" height="900" viewBox="0 0 1920 900" fill="none" xmlns="http://www.w3.org/2000/svg">
  <defs>
    <linearGradient id="pageBg" x1="960" y1="0" x2="960" y2="900" gradientUnits="userSpaceOnUse">
      <stop offset="0" stop-color="#F8FBFF"/>
      <stop offset="0.42" stop-color="#EEF8FF"/>
      <stop offset="1" stop-color="#FFFFFF"/>
    </linearGradient>
    <radialGradient id="heroGlow" cx="0" cy="0" r="1" gradientUnits="userSpaceOnUse" gradientTransform="translate(950 294) rotate(90) scale(310 520)">
      <stop stop-color="#7DD3FC" stop-opacity="0.36"/>
      <stop offset="0.48" stop-color="#A78BFA" stop-opacity="0.18"/>
      <stop offset="1" stop-color="#FFFFFF" stop-opacity="0"/>
    </radialGradient>
    <radialGradient id="cyanGlow" cx="0" cy="0" r="1" gradientUnits="userSpaceOnUse" gradientTransform="translate(755 440) rotate(90) scale(250 310)">
      <stop stop-color="#2DD4BF" stop-opacity="0.22"/>
      <stop offset="1" stop-color="#2DD4BF" stop-opacity="0"/>
    </radialGradient>
    <linearGradient id="titleGrad" x1="650" y1="243" x2="1248" y2="350" gradientUnits="userSpaceOnUse">
      <stop stop-color="#0F172A"/>
      <stop offset="0.48" stop-color="#111827"/>
      <stop offset="0.7" stop-color="#0EA5E9"/>
      <stop offset="0.88" stop-color="#8B5CF6"/>
      <stop offset="1" stop-color="#0F172A"/>
    </linearGradient>
    <linearGradient id="buttonGrad" x1="844" y1="505" x2="969" y2="551" gradientUnits="userSpaceOnUse">
      <stop stop-color="#2563EB"/>
      <stop offset="1" stop-color="#06B6D4"/>
    </linearGradient>
    <filter id="softShadow" x="-30%" y="-30%" width="160%" height="160%" color-interpolation-filters="sRGB">
      <feDropShadow dx="0" dy="22" stdDeviation="28" flood-color="#0F172A" flood-opacity="0.14"/>
    </filter>
    <filter id="blueShadow" x="-40%" y="-40%" width="180%" height="180%" color-interpolation-filters="sRGB">
      <feDropShadow dx="0" dy="18" stdDeviation="22" flood-color="#0284C7" flood-opacity="0.28"/>
    </filter>
    <pattern id="grid" width="56" height="56" patternUnits="userSpaceOnUse">
      <path d="M56 0H0V56" stroke="#0F172A" stroke-opacity="0.055" stroke-width="1"/>
    </pattern>
  </defs>

  <rect width="1920" height="900" fill="url(#pageBg)"/>
  <rect width="1920" height="900" fill="url(#grid)"/>
  <rect width="1920" height="900" fill="url(#heroGlow)"/>
  <rect width="1920" height="900" fill="url(#cyanGlow)"/>

  <path d="M482 135C650 113 785 100 963 101C1161 102 1307 121 1464 156" stroke="#38BDF8" stroke-opacity="0.22"/>
  <path d="M458 684C621 723 787 742 972 742C1159 742 1318 722 1472 682" stroke="#64748B" stroke-opacity="0.16"/>
  <path d="M628 190H1292" stroke="url(#buttonGrad)" stroke-opacity="0.28"/>
  <path d="M720 612H1200" stroke="#0EA5E9" stroke-opacity="0.18"/>

  <g id="header">
    <rect x="0" y="0" width="1920" height="68" fill="#FFFFFF" fill-opacity="0.76"/>
    <path d="M0 68H1920" stroke="#E2E8F0" stroke-opacity="0.62"/>
    <g transform="translate(10 17)">
      <rect width="34" height="34" rx="12" fill="#061727"/>
      <path d="M8 25V9L17 18L26 9V25" stroke="#67E8F9" stroke-width="2.3" stroke-linecap="round" stroke-linejoin="round"/>
      <circle cx="7" cy="7" r="2" fill="#60A5FA"/>
      <circle cx="27" cy="27" r="2" fill="#22D3EE"/>
    </g>
    <text x="53" y="42" font-family="Inter, Arial, sans-serif" font-size="20" font-weight="700" fill="#171717">Make API</text>
    <text x="165" y="42" font-family="Microsoft YaHei, Inter, Arial, sans-serif" font-size="18" font-weight="700" fill="#171717">首页</text>
    <text x="226" y="42" font-family="Microsoft YaHei, Inter, Arial, sans-serif" font-size="18" font-weight="700" fill="#171717">控制台</text>
    <text x="305" y="42" font-family="Microsoft YaHei, Inter, Arial, sans-serif" font-size="18" font-weight="700" fill="#171717">模型广场</text>
    <text x="402" y="42" font-family="Microsoft YaHei, Inter, Arial, sans-serif" font-size="18" font-weight="700" fill="#171717">文档</text>
    <g transform="translate(1648 17)">
      <circle cx="18" cy="18" r="18" fill="#F1F5F9"/>
      <path d="M18 10C15.8 10 14.3 11.6 14.3 14V18.5L12 22H24L21.7 18.5V14C21.7 11.6 20.2 10 18 10Z" stroke="#0F172A" stroke-width="1.6"/>
      <path d="M16.2 25H19.8" stroke="#0F172A" stroke-width="1.6" stroke-linecap="round"/>
    </g>
    <g transform="translate(1697 17)">
      <circle cx="18" cy="18" r="18" fill="#F1F5F9"/>
      <circle cx="18" cy="18" r="4" stroke="#0F172A" stroke-width="1.5"/>
      <path d="M18 9V6M18 30V27M9 18H6M30 18H27M11.6 11.6L9.5 9.5M26.5 26.5L24.4 24.4M24.4 11.6L26.5 9.5M9.5 26.5L11.6 24.4" stroke="#0F172A" stroke-width="1.5" stroke-linecap="round"/>
    </g>
    <g transform="translate(1746 17)">
      <circle cx="18" cy="18" r="18" fill="#F1F5F9"/>
      <text x="10" y="24" font-family="Inter, Arial, sans-serif" font-size="17" font-weight="700" fill="#0F172A">文</text>
    </g>
    <g transform="translate(1795 17)">
      <rect width="116" height="36" rx="18" fill="#F1F5F9"/>
      <circle cx="18" cy="18" r="14" fill="#FB8B7E"/>
      <text x="13" y="23" font-family="Inter, Arial, sans-serif" font-size="13" font-weight="800" fill="#FFFFFF">A</text>
      <text x="34" y="23" font-family="Inter, Arial, sans-serif" font-size="14" font-weight="600" fill="#334155">admin-yh</text>
      <path d="M104 15L108 19L112 15" stroke="#64748B" stroke-width="1.5" stroke-linecap="round" stroke-linejoin="round"/>
    </g>
  </g>

  <g id="hero" text-anchor="middle">
    <g transform="translate(810 154)">
      <rect x="0" y="0" width="300" height="36" rx="18" fill="#FFFFFF" fill-opacity="0.72" stroke="#CFFAFE"/>
      <circle cx="21" cy="18" r="4" fill="#10B981"/>
      <text x="160" y="23" font-family="Microsoft YaHei, Inter, Arial, sans-serif" font-size="13" font-weight="700" fill="#0E7490">AI Gateway Online · Smart Routing</text>
    </g>

    <text x="960" y="250" font-family="Microsoft YaHei, Inter, Arial, sans-serif" font-size="74" font-weight="900" fill="#111827">统一的</text>
    <text x="960" y="333" font-family="Microsoft YaHei, Inter, Arial, sans-serif" font-size="78" font-weight="900" fill="url(#titleGrad)">大模型接口网关</text>
    <text x="960" y="391" font-family="Microsoft YaHei, Inter, Arial, sans-serif" font-size="22" font-weight="500" fill="#475569">更好的价格，更好的稳定性，只需要将模型基址替换为：</text>

    <g filter="url(#softShadow)">
      <rect x="712" y="426" width="496" height="48" rx="24" fill="#FFFFFF" fill-opacity="0.72" stroke="#D8F3FF"/>
      <rect x="724" y="434" width="362" height="32" rx="16" fill="#EAF7FA"/>
      <text x="805" y="455" font-family="Inter, Arial, sans-serif" font-size="16" font-weight="500" fill="#1E293B">https://api.euzhi.com</text>
      <text x="1080" y="455" font-family="Inter, Arial, sans-serif" font-size="15" font-weight="800" fill="#006BFF">/v1/responses/compact</text>
      <circle cx="1184" cy="450" r="14" fill="#E2E8F0"/>
      <path d="M1179 447H1187V455H1179V447Z" stroke="#64748B" stroke-width="1.6"/>
      <path d="M1183 443H1191V451" stroke="#64748B" stroke-width="1.6"/>
    </g>

    <g transform="translate(843 505)" filter="url(#blueShadow)">
      <rect width="124" height="44" rx="22" fill="url(#buttonGrad)"/>
      <path d="M27 15L38 22L27 29V15Z" fill="#FFFFFF"/>
      <text x="78" y="28" font-family="Microsoft YaHei, Inter, Arial, sans-serif" font-size="15" font-weight="800" fill="#FFFFFF">获取密钥</text>
    </g>
    <g transform="translate(987 505)">
      <rect width="90" height="44" rx="22" fill="#EAF3F8"/>
      <path d="M23 14H33L38 19V31H23V14Z" stroke="#006BFF" stroke-width="1.8" stroke-linejoin="round"/>
      <path d="M33 14V20H38" stroke="#006BFF" stroke-width="1.8"/>
      <text x="59" y="28" font-family="Microsoft YaHei, Inter, Arial, sans-serif" font-size="15" font-weight="800" fill="#006BFF">文档</text>
    </g>
  </g>

  <g id="signal-cards" font-family="Inter, Microsoft YaHei, Arial, sans-serif">
    <g transform="translate(604 584)">
      <rect width="226" height="64" rx="18" fill="#FFFFFF" fill-opacity="0.68" stroke="#DCEBFA"/>
      <text x="22" y="25" font-size="12" font-weight="700" fill="#64748B">UNIFIED ENDPOINT</text>
      <text x="22" y="46" font-size="14" font-weight="800" fill="#0F172A">OpenAI / Claude / Gemini</text>
    </g>
    <g transform="translate(847 584)">
      <rect width="226" height="64" rx="18" fill="#FFFFFF" fill-opacity="0.68" stroke="#DCEBFA"/>
      <text x="22" y="25" font-size="12" font-weight="700" fill="#64748B">LIVE ROUTING</text>
      <text x="22" y="46" font-size="14" font-weight="800" fill="#0F172A">99.95% SLA · 200 OK</text>
    </g>
    <g transform="translate(1090 584)">
      <rect width="226" height="64" rx="18" fill="#FFFFFF" fill-opacity="0.68" stroke="#DCEBFA"/>
      <text x="22" y="25" font-size="12" font-weight="700" fill="#64748B">COST CONTROL</text>
      <text x="22" y="46" font-size="14" font-weight="800" fill="#0F172A">Real-time billing</text>
    </g>
  </g>

  <g id="providers" text-anchor="middle">
    <text x="960" y="690" font-family="Microsoft YaHei, Inter, Arial, sans-serif" font-size="24" font-weight="500" fill="#64748B">支持众多的大模型供应商</text>
    <g transform="translate(498 714)">
      <g font-family="Inter, Arial, sans-serif" font-size="18" font-weight="900">
        <circle cx="20" cy="20" r="19" fill="#111827"/><text x="20" y="27" fill="#FFFFFF">O</text>
        <circle cx="109" cy="20" r="19" fill="#FFFFFF" stroke="#111827" stroke-width="3"/><text x="109" y="27" fill="#111827">AI</text>
        <path d="M178 36L199 4H210L190 36H178ZM206 36L190 13H202L218 36H206Z" fill="#111827"/>
        <circle cx="285" cy="20" r="17" fill="#4F46E5"/><circle cx="285" cy="20" r="7" fill="#FFFFFF"/>
        <path d="M354 38L374 2L394 38H354Z" fill="#00A3FF"/><path d="M381 38L399 8L416 38H381Z" fill="#15C2B8"/>
        <circle cx="461" cy="20" r="14" fill="#315B52"/><circle cx="448" cy="35" r="8" fill="#FF7A59"/><circle cx="471" cy="35" r="8" fill="#B071D9"/>
        <path d="M536 5L552 20L536 35L520 20L536 5Z" fill="#E879F9"/><path d="M536 9L548 20L536 31L524 20L536 9Z" fill="#F97316"/>
        <path d="M613 3L632 20L613 37L594 20L613 3Z" fill="#60A5FA"/><path d="M613 7L628 20L613 33L598 20L613 7Z" fill="#4F46E5"/>
        <path d="M703 7C716 7 724 33 737 33C724 33 716 7 703 7Z" fill="#111827"/><path d="M703 33C716 33 724 7 737 7C724 7 716 33 703 33Z" fill="#111827"/>
        <path d="M806 8V32M795 13V27M817 13V27M784 18V22M828 18V22" stroke="#FF3B75" stroke-width="4" stroke-linecap="round"/>
        <path d="M890 4L908 14V34L890 44L872 34V14L890 4Z" fill="#1683E2"/><path d="M890 13L899 18V29L890 34L881 29V18L890 13Z" fill="#FFFFFF"/>
      </g>
    </g>
    <g transform="translate(545 802)">
      <g font-family="Inter, Arial, sans-serif" font-size="18" font-weight="900">
        <circle cx="20" cy="20" r="18" fill="#0EA5E9"/><path d="M11 28C23 27 20 13 29 10C35 19 31 33 20 34C15 34 12 32 11 28Z" fill="#FFFFFF"/>
        <circle cx="108" cy="20" r="17" fill="none" stroke="#2563EB" stroke-width="5"/><path d="M94 25C105 12 119 12 124 16" stroke="#2563EB" stroke-width="5" stroke-linecap="round"/>
        <path d="M188 33C170 26 169 8 187 8C202 8 214 20 218 29C207 27 201 37 188 33Z" fill="#4F6BFF"/>
        <path d="M280 3L302 16V42L280 55L258 42V16L280 3Z" fill="#4F46E5"/><path d="M269 20H291M280 9V46M264 33H296" stroke="#FFFFFF" stroke-width="3"/>
        <path d="M366 38C386 15 402 23 416 37C394 26 380 35 366 38Z" fill="#111827"/><path d="M366 38C383 14 374 7 368 2C388 16 398 26 416 37" stroke="#111827" stroke-width="2"/>
        <circle cx="494" cy="20" r="18" fill="#111827"/><path d="M481 32L507 8" stroke="#FFFFFF" stroke-width="4" stroke-linecap="round"/>
        <path d="M579 4H599L587 36H567L579 4Z" fill="#2563EB"/><path d="M592 4H604C616 4 618 36 602 36H582L592 4Z" fill="#D946EF" fill-opacity="0.82"/>
        <circle cx="685" cy="20" r="18" fill="#1D4ED8"/><path d="M676 33C694 31 705 13 690 6C712 12 710 40 686 40C681 40 678 37 676 33Z" fill="#22D3EE"/>
        <path d="M768 39L789 5L805 21L768 39Z" fill="#9333EA"/><path d="M789 5L777 30L816 13L805 21L789 5Z" fill="#F97316"/>
        <text x="825" y="28" fill="#1F2937">30+</text>
      </g>
    </g>
  </g>

  <rect x="0" y="899" width="1920" height="1" fill="#CBD5E1"/>
</svg>
