<svg width="1920" height="900" viewBox="0 0 1920 900" fill="none" xmlns="http://www.w3.org/2000/svg">
  <defs>
    <linearGradient id="bg" x1="960" y1="0" x2="960" y2="900" gradientUnits="userSpaceOnUse">
      <stop offset="0" stop-color="#F7FAFF"/>
      <stop offset="0.48" stop-color="#F2FBFD"/>
      <stop offset="1" stop-color="#FFFFFF"/>
    </linearGradient>
    <radialGradient id="topGlow" cx="0" cy="0" r="1" gradientUnits="userSpaceOnUse" gradientTransform="translate(990 190) rotate(90) scale(330 670)">
      <stop stop-color="#DBEAFE" stop-opacity="0.9"/>
      <stop offset="0.36" stop-color="#A5F3FC" stop-opacity="0.34"/>
      <stop offset="0.68" stop-color="#C4B5FD" stop-opacity="0.18"/>
      <stop offset="1" stop-color="#FFFFFF" stop-opacity="0"/>
    </radialGradient>
    <radialGradient id="leftGlow" cx="0" cy="0" r="1" gradientUnits="userSpaceOnUse" gradientTransform="translate(640 442) rotate(90) scale(250 280)">
      <stop stop-color="#99F6E4" stop-opacity="0.28"/>
      <stop offset="1" stop-color="#99F6E4" stop-opacity="0"/>
    </radialGradient>
    <linearGradient id="headline" x1="626" y1="207" x2="1277" y2="332" gradientUnits="userSpaceOnUse">
      <stop stop-color="#101827"/>
      <stop offset="0.47" stop-color="#101827"/>
      <stop offset="0.68" stop-color="#2563EB"/>
      <stop offset="0.86" stop-color="#06B6D4"/>
      <stop offset="1" stop-color="#101827"/>
    </linearGradient>
    <linearGradient id="primary" x1="834" y1="500" x2="978" y2="548" gradientUnits="userSpaceOnUse">
      <stop stop-color="#0F6BFF"/>
      <stop offset="1" stop-color="#00B8D9"/>
    </linearGradient>
    <linearGradient id="glassLine" x1="418" y1="145" x2="1502" y2="145" gradientUnits="userSpaceOnUse">
      <stop stop-color="#38BDF8" stop-opacity="0"/>
      <stop offset="0.5" stop-color="#38BDF8" stop-opacity="0.5"/>
      <stop offset="1" stop-color="#38BDF8" stop-opacity="0"/>
    </linearGradient>
    <filter id="cardShadow" x="-20%" y="-30%" width="140%" height="180%" color-interpolation-filters="sRGB">
      <feDropShadow dx="0" dy="18" stdDeviation="30" flood-color="#075985" flood-opacity="0.14"/>
    </filter>
    <filter id="buttonShadow" x="-50%" y="-60%" width="200%" height="220%" color-interpolation-filters="sRGB">
      <feDropShadow dx="0" dy="16" stdDeviation="18" flood-color="#2563EB" flood-opacity="0.34"/>
    </filter>
    <pattern id="dotGrid" width="28" height="28" patternUnits="userSpaceOnUse">
      <circle cx="1" cy="1" r="1" fill="#0F172A" fill-opacity="0.08"/>
    </pattern>
    <pattern id="fineGrid" width="72" height="72" patternUnits="userSpaceOnUse">
      <path d="M72 0H0V72" stroke="#0F172A" stroke-opacity="0.045"/>
    </pattern>
  </defs>

  <rect width="1920" height="900" fill="url(#bg)"/>
  <rect width="1920" height="900" fill="url(#fineGrid)"/>
  <rect width="1920" height="900" fill="url(#dotGrid)" opacity="0.55"/>
  <rect width="1920" height="900" fill="url(#topGlow)"/>
  <rect width="1920" height="900" fill="url(#leftGlow)"/>

  <path d="M418 145H1502" stroke="url(#glassLine)"/>
  <path d="M560 618C674 656 802 674 960 674C1115 674 1246 655 1362 618" stroke="#0EA5E9" stroke-opacity="0.14"/>
  <path d="M657 170C747 137 846 121 960 121C1076 121 1177 138 1264 170" stroke="#6366F1" stroke-opacity="0.16"/>

  <g id="header">
    <rect width="1920" height="68" fill="#FFFFFF" fill-opacity="0.78"/>
    <path d="M0 68H1920" stroke="#E2E8F0" stroke-opacity="0.58"/>
    <image href="../web/default/public/make-api-mark.svg" x="10" y="17" width="34" height="34" preserveAspectRatio="xMidYMid meet"/>
    <text x="53" y="42" font-family="Inter, Arial, sans-serif" font-size="20" font-weight="700" fill="#171717">Make API</text>
    <text x="165" y="42" font-family="Microsoft YaHei, Inter, Arial, sans-serif" font-size="18" font-weight="700" fill="#171717">首页</text>
    <text x="226" y="42" font-family="Microsoft YaHei, Inter, Arial, sans-serif" font-size="18" font-weight="700" fill="#171717">控制台</text>
    <text x="305" y="42" font-family="Microsoft YaHei, Inter, Arial, sans-serif" font-size="18" font-weight="700" fill="#171717">模型广场</text>
    <text x="402" y="42" font-family="Microsoft YaHei, Inter, Arial, sans-serif" font-size="18" font-weight="700" fill="#171717">文档</text>
    <g transform="translate(1648 17)">
      <circle cx="18" cy="18" r="18" fill="#F1F5F9"/>
      <path d="M18 10C15.8 10 14.3 11.6 14.3 14V18.5L12 22H24L21.7 18.5V14C21.7 11.6 20.2 10 18 10Z" stroke="#0F172A" stroke-width="1.6"/>
      <path d="M16.2 25H19.8" stroke="#0F172A" stroke-width="1.6" stroke-linecap="round"/>
    </g>
    <g transform="translate(1697 17)">
      <circle cx="18" cy="18" r="18" fill="#F1F5F9"/>
      <circle cx="18" cy="18" r="4" stroke="#0F172A" stroke-width="1.5"/>
      <path d="M18 9V6M18 30V27M9 18H6M30 18H27M11.6 11.6L9.5 9.5M26.5 26.5L24.4 24.4M24.4 11.6L26.5 9.5M9.5 26.5L11.6 24.4" stroke="#0F172A" stroke-width="1.5" stroke-linecap="round"/>
    </g>
    <g transform="translate(1746 17)">
      <circle cx="18" cy="18" r="18" fill="#F1F5F9"/>
      <text x="10" y="24" font-family="Inter, Arial, sans-serif" font-size="17" font-weight="700" fill="#0F172A">文</text>
    </g>
    <g transform="translate(1795 17)">
      <rect width="116" height="36" rx="18" fill="#F1F5F9"/>
      <circle cx="18" cy="18" r="14" fill="#FB8B7E"/>
      <text x="13" y="23" font-family="Inter, Arial, sans-serif" font-size="13" font-weight="800" fill="#FFFFFF">A</text>
      <text x="34" y="23" font-family="Inter, Arial, sans-serif" font-size="14" font-weight="600" fill="#334155">admin-yh</text>
      <path d="M104 15L108 19L112 15" stroke="#64748B" stroke-width="1.5" stroke-linecap="round" stroke-linejoin="round"/>
    </g>
  </g>

  <g id="hero" text-anchor="middle">
    <g transform="translate(768 148)">
      <rect width="384" height="38" rx="19" fill="#FFFFFF" fill-opacity="0.72" stroke="#BAE6FD"/>
      <rect x="9" y="9" width="20" height="20" rx="10" fill="#DCFCE7"/>
      <circle cx="19" cy="19" r="4" fill="#10B981"/>
      <text x="206" y="24" font-family="Inter, Microsoft YaHei, Arial, sans-serif" font-size="13" font-weight="800" fill="#0E7490">Unified API Gateway · Multi-model Routing</text>
    </g>

    <text x="960" y="255" font-family="Microsoft YaHei, Inter, Arial, sans-serif" font-size="76" font-weight="900" fill="#111827">统一的</text>
    <text x="960" y="338" font-family="Microsoft YaHei, Inter, Arial, sans-serif" font-size="78" font-weight="900" fill="url(#headline)">大模型接口网关</text>
    <text x="960" y="392" font-family="Microsoft YaHei, Inter, Arial, sans-serif" font-size="21" font-weight="500" fill="#475569">更好的价格，更好的稳定性，只需要将模型基址替换为：</text>

    <g filter="url(#cardShadow)">
      <rect x="676" y="424" width="568" height="56" rx="28" fill="#FFFFFF" fill-opacity="0.72" stroke="#D0F2FF"/>
      <rect x="690" y="436" width="382" height="32" rx="16" fill="#ECF8FB"/>
      <text x="780" y="457" font-family="Inter, Arial, sans-serif" font-size="16" font-weight="500" fill="#1E293B">https://api.euzhi.com</text>
      <rect x="1082" y="436" width="124" height="32" rx="16" fill="#EFF6FF"/>
      <text x="1144" y="457" font-family="Inter, Arial, sans-serif" font-size="14" font-weight="800" fill="#006BFF">/v1</text>
      <circle cx="1222" cy="452" r="14" fill="#E2E8F0"/>
      <path d="M1217 449H1225V457H1217V449Z" stroke="#64748B" stroke-width="1.6"/>
      <path d="M1221 445H1229V453" stroke="#64748B" stroke-width="1.6"/>
    </g>

    <g transform="translate(780 503)" filter="url(#buttonShadow)">
      <rect width="144" height="48" rx="24" fill="url(#primary)"/>
      <path d="M30 16L42 24L30 32V16Z" fill="#FFFFFF"/>
      <text x="92" y="30" font-family="Microsoft YaHei, Inter, Arial, sans-serif" font-size="16" font-weight="800" fill="#FFFFFF">获取密钥</text>
    </g>
    <g transform="translate(944 503)">
      <rect width="108" height="48" rx="24" fill="#EEF6FA"/>
      <path d="M28 15H38L43 20V33H28V15Z" stroke="#006BFF" stroke-width="1.8" stroke-linejoin="round"/>
      <path d="M38 15V21H43" stroke="#006BFF" stroke-width="1.8"/>
      <text x="70" y="30" font-family="Microsoft YaHei, Inter, Arial, sans-serif" font-size="16" font-weight="800" fill="#006BFF">文档</text>
    </g>
    <g transform="translate(1072 503)">
      <rect width="126" height="48" rx="24" fill="#FFFFFF" fill-opacity="0.62" stroke="#DCEBFA"/>
      <text x="63" y="30" font-family="Inter, Arial, sans-serif" font-size="14" font-weight="800" fill="#334155">200 OK</text>
    </g>
  </g>

  <g id="data-strip" font-family="Inter, Microsoft YaHei, Arial, sans-serif">
    <g transform="translate(556 590)">
      <rect width="248" height="70" rx="20" fill="#FFFFFF" fill-opacity="0.66" stroke="#D8ECF7"/>
      <text x="24" y="28" font-size="12" font-weight="800" fill="#64748B">PROVIDERS</text>
      <text x="24" y="52" font-size="18" font-weight="900" fill="#0F172A">30+ 模型供应商</text>
    </g>
    <g transform="translate(836 590)">
      <rect width="248" height="70" rx="20" fill="#FFFFFF" fill-opacity="0.66" stroke="#D8ECF7"/>
      <text x="24" y="28" font-size="12" font-weight="800" fill="#64748B">ROUTING</text>
      <text x="24" y="52" font-size="18" font-weight="900" fill="#0F172A">智能分发 / 故障转移</text>
    </g>
    <g transform="translate(1116 590)">
      <rect width="248" height="70" rx="20" fill="#FFFFFF" fill-opacity="0.66" stroke="#D8ECF7"/>
      <text x="24" y="28" font-size="12" font-weight="800" fill="#64748B">BILLING</text>
      <text x="24" y="52" font-size="18" font-weight="900" fill="#0F172A">实时计费与用量追踪</text>
    </g>
  </g>

  <g id="providers" text-anchor="middle">
    <text x="960" y="708" font-family="Microsoft YaHei, Inter, Arial, sans-serif" font-size="24" font-weight="500" fill="#64748B">支持众多的大模型供应商</text>
    <g transform="translate(498 736)" font-family="Inter, Arial, sans-serif" font-size="18" font-weight="900">
      <circle cx="20" cy="20" r="19" fill="#111827"/><text x="20" y="27" fill="#FFFFFF">O</text>
      <circle cx="109" cy="20" r="19" fill="#FFFFFF" stroke="#111827" stroke-width="3"/><text x="109" y="27" fill="#111827">AI</text>
      <path d="M178 36L199 4H210L190 36H178ZM206 36L190 13H202L218 36H206Z" fill="#111827"/>
      <circle cx="285" cy="20" r="17" fill="#4F46E5"/><circle cx="285" cy="20" r="7" fill="#FFFFFF"/>
      <path d="M354 38L374 2L394 38H354Z" fill="#00A3FF"/><path d="M381 38L399 8L416 38H381Z" fill="#15C2B8"/>
      <circle cx="461" cy="20" r="14" fill="#315B52"/><circle cx="448" cy="35" r="8" fill="#FF7A59"/><circle cx="471" cy="35" r="8" fill="#B071D9"/>
      <path d="M536 5L552 20L536 35L520 20L536 5Z" fill="#E879F9"/><path d="M536 9L548 20L536 31L524 20L536 9Z" fill="#F97316"/>
      <path d="M613 3L632 20L613 37L594 20L613 3Z" fill="#60A5FA"/><path d="M613 7L628 20L613 33L598 20L613 7Z" fill="#4F46E5"/>
      <path d="M703 7C716 7 724 33 737 33C724 33 716 7 703 7Z" fill="#111827"/><path d="M703 33C716 33 724 7 737 7C724 7 716 33 703 33Z" fill="#111827"/>
      <path d="M806 8V32M795 13V27M817 13V27M784 18V22M828 18V22" stroke="#FF3B75" stroke-width="4" stroke-linecap="round"/>
      <path d="M890 4L908 14V34L890 44L872 34V14L890 4Z" fill="#1683E2"/><path d="M890 13L899 18V29L890 34L881 29V18L890 13Z" fill="#FFFFFF"/>
    </g>
    <g transform="translate(545 815)" font-family="Inter, Arial, sans-serif" font-size="18" font-weight="900">
      <circle cx="20" cy="20" r="18" fill="#0EA5E9"/><path d="M11 28C23 27 20 13 29 10C35 19 31 33 20 34C15 34 12 32 11 28Z" fill="#FFFFFF"/>
      <circle cx="108" cy="20" r="17" fill="none" stroke="#2563EB" stroke-width="5"/><path d="M94 25C105 12 119 12 124 16" stroke="#2563EB" stroke-width="5" stroke-linecap="round"/>
      <path d="M188 33C170 26 169 8 187 8C202 8 214 20 218 29C207 27 201 37 188 33Z" fill="#4F6BFF"/>
      <path d="M280 3L302 16V42L280 55L258 42V16L280 3Z" fill="#4F46E5"/><path d="M269 20H291M280 9V46M264 33H296" stroke="#FFFFFF" stroke-width="3"/>
      <path d="M366 38C386 15 402 23 416 37C394 26 380 35 366 38Z" fill="#111827"/><path d="M366 38C383 14 374 7 368 2C388 16 398 26 416 37" stroke="#111827" stroke-width="2"/>
      <circle cx="494" cy="20" r="18" fill="#111827"/><path d="M481 32L507 8" stroke="#FFFFFF" stroke-width="4" stroke-linecap="round"/>
      <path d="M579 4H599L587 36H567L579 4Z" fill="#2563EB"/><path d="M592 4H604C616 4 618 36 602 36H582L592 4Z" fill="#D946EF" fill-opacity="0.82"/>
      <circle cx="685" cy="20" r="18" fill="#1D4ED8"/><path d="M676 33C694 31 705 13 690 6C712 12 710 40 686 40C681 40 678 37 676 33Z" fill="#22D3EE"/>
      <path d="M768 39L789 5L805 21L768 39Z" fill="#9333EA"/><path d="M789 5L777 30L816 13L805 21L789 5Z" fill="#F97316"/>
      <text x="825" y="28" fill="#1F2937">30+</text>
    </g>
  </g>

  <rect x="0" y="899" width="1920" height="1" fill="#CBD5E1"/>
</svg>
