<svg width="1920" height="900" viewBox="0 0 1920 900" fill="none" xmlns="http://www.w3.org/2000/svg">
  <defs>
    <linearGradient id="bg" x1="0" y1="0" x2="1920" y2="900" gradientUnits="userSpaceOnUse">
      <stop stop-color="#F9FBFF"/>
      <stop offset="0.46" stop-color="#EEF8FF"/>
      <stop offset="1" stop-color="#FFFFFF"/>
    </linearGradient>
    <radialGradient id="haloA" cx="0" cy="0" r="1" gradientUnits="userSpaceOnUse" gradientTransform="translate(1338 348) rotate(90) scale(400 520)">
      <stop stop-color="#22D3EE" stop-opacity="0.28"/>
      <stop offset="0.56" stop-color="#60A5FA" stop-opacity="0.12"/>
      <stop offset="1" stop-color="#FFFFFF" stop-opacity="0"/>
    </radialGradient>
    <radialGradient id="haloB" cx="0" cy="0" r="1" gradientUnits="userSpaceOnUse" gradientTransform="translate(386 260) rotate(90) scale(310 340)">
      <stop stop-color="#A78BFA" stop-opacity="0.2"/>
      <stop offset="1" stop-color="#FFFFFF" stop-opacity="0"/>
    </radialGradient>
    <linearGradient id="headline" x1="150" y1="220" x2="742" y2="392" gradientUnits="userSpaceOnUse">
      <stop stop-color="#0F172A"/>
      <stop offset="0.58" stop-color="#0F172A"/>
      <stop offset="0.78" stop-color="#2563EB"/>
      <stop offset="1" stop-color="#0891B2"/>
    </linearGradient>
    <linearGradient id="primary" x1="150" y1="548" x2="315" y2="600" gradientUnits="userSpaceOnUse">
      <stop stop-color="#1D4ED8"/>
      <stop offset="1" stop-color="#06B6D4"/>
    </linearGradient>
    <linearGradient id="panel" x1="1010" y1="168" x2="1652" y2="736" gradientUnits="userSpaceOnUse">
      <stop stop-color="#0B1220"/>
      <stop offset="0.52" stop-color="#101A2F"/>
      <stop offset="1" stop-color="#07111F"/>
    </linearGradient>
    <linearGradient id="panelStroke" x1="1010" y1="166" x2="1652" y2="736" gradientUnits="userSpaceOnUse">
      <stop stop-color="#67E8F9"/>
      <stop offset="0.48" stop-color="#3B82F6"/>
      <stop offset="1" stop-color="#8B5CF6"/>
    </linearGradient>
    <pattern id="grid" width="64" height="64" patternUnits="userSpaceOnUse">
      <path d="M64 0H0V64" stroke="#0F172A" stroke-opacity="0.055"/>
    </pattern>
    <pattern id="panelGrid" width="34" height="34" patternUnits="userSpaceOnUse">
      <path d="M34 0H0V34" stroke="#93C5FD" stroke-opacity="0.055"/>
    </pattern>
    <filter id="soft" x="-20%" y="-20%" width="140%" height="150%" color-interpolation-filters="sRGB">
      <feDropShadow dx="0" dy="28" stdDeviation="34" flood-color="#0F172A" flood-opacity="0.18"/>
    </filter>
    <filter id="blue" x="-40%" y="-40%" width="180%" height="190%" color-interpolation-filters="sRGB">
      <feDropShadow dx="0" dy="18" stdDeviation="22" flood-color="#2563EB" flood-opacity="0.34"/>
    </filter>
  </defs>

  <rect width="1920" height="900" fill="url(#bg)"/>
  <rect width="1920" height="900" fill="url(#grid)"/>
  <rect width="1920" height="900" fill="url(#haloA)"/>
  <rect width="1920" height="900" fill="url(#haloB)"/>
  <path d="M0 690C278 638 477 635 751 678C1048 725 1260 753 1920 665" stroke="#38BDF8" stroke-opacity="0.16"/>
  <path d="M0 735C278 683 477 680 751 723C1048 770 1260 798 1920 710" stroke="#8B5CF6" stroke-opacity="0.08"/>

  <g id="header">
    <rect width="1920" height="68" fill="#FFFFFF" fill-opacity="0.78"/>
    <path d="M0 68H1920" stroke="#E2E8F0" stroke-opacity="0.58"/>
    <image href="../web/default/public/make-api-mark.svg" x="10" y="17" width="34" height="34" preserveAspectRatio="xMidYMid meet"/>
    <text x="53" y="42" font-family="Inter, Arial, sans-serif" font-size="20" font-weight="700" fill="#171717">Make API</text>
    <text x="165" y="42" font-family="Microsoft YaHei, Inter, Arial, sans-serif" font-size="18" font-weight="700" fill="#171717">首页</text>
    <text x="226" y="42" font-family="Microsoft YaHei, Inter, Arial, sans-serif" font-size="18" font-weight="700" fill="#171717">控制台</text>
    <text x="305" y="42" font-family="Microsoft YaHei, Inter, Arial, sans-serif" font-size="18" font-weight="700" fill="#171717">模型广场</text>
    <text x="402" y="42" font-family="Microsoft YaHei, Inter, Arial, sans-serif" font-size="18" font-weight="700" fill="#171717">文档</text>
    <g transform="translate(1648 17)">
      <circle cx="18" cy="18" r="18" fill="#F1F5F9"/>
      <path d="M18 10C15.8 10 14.3 11.6 14.3 14V18.5L12 22H24L21.7 18.5V14C21.7 11.6 20.2 10 18 10Z" stroke="#0F172A" stroke-width="1.6"/>
      <path d="M16.2 25H19.8" stroke="#0F172A" stroke-width="1.6" stroke-linecap="round"/>
    </g>
    <g transform="translate(1697 17)">
      <circle cx="18" cy="18" r="18" fill="#F1F5F9"/>
      <circle cx="18" cy="18" r="4" stroke="#0F172A" stroke-width="1.5"/>
      <path d="M18 9V6M18 30V27M9 18H6M30 18H27M11.6 11.6L9.5 9.5M26.5 26.5L24.4 24.4M24.4 11.6L26.5 9.5M9.5 26.5L11.6 24.4" stroke="#0F172A" stroke-width="1.5" stroke-linecap="round"/>
    </g>
    <g transform="translate(1746 17)">
      <circle cx="18" cy="18" r="18" fill="#F1F5F9"/>
      <text x="10" y="24" font-family="Inter, Arial, sans-serif" font-size="17" font-weight="700" fill="#0F172A">文</text>
    </g>
    <g transform="translate(1795 17)">
      <rect width="116" height="36" rx="18" fill="#F1F5F9"/>
      <circle cx="18" cy="18" r="14" fill="#FB8B7E"/>
      <text x="13" y="23" font-family="Inter, Arial, sans-serif" font-size="13" font-weight="800" fill="#FFFFFF">A</text>
      <text x="34" y="23" font-family="Inter, Arial, sans-serif" font-size="14" font-weight="600" fill="#334155">admin-yh</text>
      <path d="M104 15L108 19L112 15" stroke="#64748B" stroke-width="1.5" stroke-linecap="round" stroke-linejoin="round"/>
    </g>
  </g>

  <g id="left-copy">
    <g transform="translate(150 154)">
      <rect width="328" height="38" rx="19" fill="#FFFFFF" fill-opacity="0.76" stroke="#BAE6FD"/>
      <circle cx="22" cy="19" r="5" fill="#10B981"/>
      <text x="44" y="24" font-family="Inter, Microsoft YaHei, Arial, sans-serif" font-size="13" font-weight="800" fill="#0E7490">Unified routing · Cost aware · Stable</text>
    </g>
    <text x="150" y="266" font-family="Microsoft YaHei, Inter, Arial, sans-serif" font-size="76" font-weight="900" fill="url(#headline)">统一大模型</text>
    <text x="150" y="352" font-family="Microsoft YaHei, Inter, Arial, sans-serif" font-size="76" font-weight="900" fill="#0F172A">接口网关</text>
    <text x="154" y="416" font-family="Microsoft YaHei, Inter, Arial, sans-serif" font-size="22" font-weight="500" fill="#475569">把不同供应商、模型和计费规则收束到一个稳定入口。</text>
    <text x="154" y="452" font-family="Microsoft YaHei, Inter, Arial, sans-serif" font-size="22" font-weight="500" fill="#475569">更好的价格，更好的稳定性，只需要替换模型基址。</text>

    <g transform="translate(150 492)" filter="url(#soft)">
      <rect width="640" height="56" rx="18" fill="#FFFFFF" fill-opacity="0.78" stroke="#D7EEFA"/>
      <rect x="14" y="12" width="326" height="32" rx="12" fill="#EFF8FA"/>
      <text x="32" y="34" font-family="Inter, Arial, sans-serif" font-size="16" font-weight="600" fill="#1E293B">https://api.euzhi.com</text>
      <text x="364" y="34" font-family="Inter, Arial, sans-serif" font-size="15" font-weight="800" fill="#006BFF">/v1/responses/compact</text>
      <circle cx="612" cy="28" r="15" fill="#E2E8F0"/>
      <path d="M607 25H615V33H607V25Z" stroke="#64748B" stroke-width="1.6"/>
      <path d="M611 21H619V29" stroke="#64748B" stroke-width="1.6"/>
    </g>

    <g transform="translate(150 586)">
      <g filter="url(#blue)">
        <rect width="142" height="48" rx="15" fill="url(#primary)"/>
        <path d="M28 16L40 24L28 32V16Z" fill="#FFFFFF"/>
        <text x="88" y="31" font-family="Microsoft YaHei, Inter, Arial, sans-serif" font-size="16" font-weight="800" fill="#FFFFFF" text-anchor="middle">获取密钥</text>
      </g>
      <rect x="158" width="108" height="48" rx="15" fill="#EEF6FA" stroke="#D7EEFA"/>
      <path d="M185 15H195L200 20V33H185V15Z" stroke="#006BFF" stroke-width="1.8" stroke-linejoin="round"/>
      <path d="M195 15V21H200" stroke="#006BFF" stroke-width="1.8"/>
      <text x="227" y="31" font-family="Microsoft YaHei, Inter, Arial, sans-serif" font-size="16" font-weight="800" fill="#006BFF" text-anchor="middle">文档</text>
    </g>

    <g transform="translate(150 684)" font-family="Inter, Microsoft YaHei, Arial, sans-serif">
      <g>
        <text x="0" y="0" font-size="34" font-weight="900" fill="#0F172A">30+</text>
        <text x="0" y="28" font-size="13" font-weight="700" fill="#64748B">供应商接入</text>
      </g>
      <g transform="translate(142 0)">
        <text x="0" y="0" font-size="34" font-weight="900" fill="#0F172A">99.95%</text>
        <text x="0" y="28" font-size="13" font-weight="700" fill="#64748B">路由可用性</text>
      </g>
      <g transform="translate(332 0)">
        <text x="0" y="0" font-size="34" font-weight="900" fill="#0F172A">1 API</text>
        <text x="0" y="28" font-size="13" font-weight="700" fill="#64748B">统一调用入口</text>
      </g>
    </g>
  </g>

  <g id="console" filter="url(#soft)">
    <rect x="984" y="142" width="736" height="624" rx="34" fill="url(#panel)" stroke="url(#panelStroke)" stroke-opacity="0.62"/>
    <rect x="984" y="142" width="736" height="624" rx="34" fill="url(#panelGrid)"/>
    <rect x="1016" y="174" width="672" height="52" rx="18" fill="#FFFFFF" fill-opacity="0.055" stroke="#FFFFFF" stroke-opacity="0.09"/>
    <circle cx="1042" cy="200" r="6" fill="#FF6B6B"/>
    <circle cx="1063" cy="200" r="6" fill="#FBBF24"/>
    <circle cx="1084" cy="200" r="6" fill="#34D399"/>
    <text x="1122" y="205" font-family="Inter, Arial, sans-serif" font-size="13" font-weight="800" fill="#BAE6FD">gateway-routing-console</text>
    <rect x="1552" y="188" width="104" height="24" rx="12" fill="#052E2B" stroke="#2DD4BF" stroke-opacity="0.3"/>
    <circle cx="1570" cy="200" r="4" fill="#34D399"/>
    <text x="1582" y="205" font-family="Inter, Arial, sans-serif" font-size="12" font-weight="800" fill="#A7F3D0">LIVE</text>

    <g font-family="Inter, Arial, sans-serif">
      <rect x="1030" y="254" width="198" height="104" rx="20" fill="#FFFFFF" fill-opacity="0.07" stroke="#FFFFFF" stroke-opacity="0.08"/>
      <text x="1052" y="285" font-size="12" font-weight="800" fill="#93C5FD">REQUESTS</text>
      <text x="1052" y="326" font-size="36" font-weight="900" fill="#F8FAFC">2.8M</text>
      <path d="M1052 343C1082 324 1106 351 1132 332C1162 310 1190 342 1207 322" stroke="#38BDF8" stroke-width="3" stroke-linecap="round"/>

      <rect x="1250" y="254" width="198" height="104" rx="20" fill="#FFFFFF" fill-opacity="0.07" stroke="#FFFFFF" stroke-opacity="0.08"/>
      <text x="1272" y="285" font-size="12" font-weight="800" fill="#A7F3D0">SUCCESS RATE</text>
      <text x="1272" y="326" font-size="36" font-weight="900" fill="#F8FAFC">99.95%</text>
      <rect x="1272" y="342" width="138" height="8" rx="4" fill="#FFFFFF" fill-opacity="0.12"/>
      <rect x="1272" y="342" width="126" height="8" rx="4" fill="#34D399"/>

      <rect x="1470" y="254" width="198" height="104" rx="20" fill="#FFFFFF" fill-opacity="0.07" stroke="#FFFFFF" stroke-opacity="0.08"/>
      <text x="1492" y="285" font-size="12" font-weight="800" fill="#FDE68A">AVG LATENCY</text>
      <text x="1492" y="326" font-size="36" font-weight="900" fill="#F8FAFC">142ms</text>
      <circle cx="1630" cy="322" r="22" fill="#F59E0B" fill-opacity="0.14" stroke="#FBBF24" stroke-opacity="0.6"/>
      <path d="M1630 305V322L1642 330" stroke="#FDE68A" stroke-width="3" stroke-linecap="round"/>
    </g>

    <g id="topology">
      <rect x="1030" y="386" width="408" height="326" rx="24" fill="#FFFFFF" fill-opacity="0.055" stroke="#FFFFFF" stroke-opacity="0.08"/>
      <text x="1058" y="422" font-family="Inter, Arial, sans-serif" font-size="13" font-weight="900" fill="#E0F2FE">Routing Topology</text>
      <circle cx="1234" cy="552" r="58" fill="#0EA5E9" fill-opacity="0.12" stroke="#38BDF8" stroke-width="2"/>
      <circle cx="1234" cy="552" r="29" fill="#38BDF8" fill-opacity="0.22"/>
      <image href="../web/default/public/make-api-mark.svg" x="1215" y="533" width="38" height="38" preserveAspectRatio="xMidYMid meet"/>
      <g stroke-width="2">
        <path d="M1234 494L1128 456" stroke="#38BDF8" stroke-opacity="0.65"/>
        <path d="M1234 494L1342 456" stroke="#8B5CF6" stroke-opacity="0.65"/>
        <path d="M1287 552L1382 552" stroke="#34D399" stroke-opacity="0.65"/>
        <path d="M1234 610L1125 654" stroke="#FBBF24" stroke-opacity="0.65"/>
        <path d="M1234 610L1342 654" stroke="#F472B6" stroke-opacity="0.65"/>
      </g>
      <g font-family="Inter, Arial, sans-serif" font-size="11" font-weight="900" text-anchor="middle">
        <circle cx="1128" cy="456" r="30" fill="#111827" stroke="#38BDF8" stroke-opacity="0.5"/><text x="1128" y="461" fill="#E0F2FE">OpenAI</text>
        <circle cx="1342" cy="456" r="30" fill="#111827" stroke="#8B5CF6" stroke-opacity="0.5"/><text x="1342" y="461" fill="#EDE9FE">Claude</text>
        <circle cx="1382" cy="552" r="30" fill="#111827" stroke="#34D399" stroke-opacity="0.5"/><text x="1382" y="557" fill="#D1FAE5">Gemini</text>
        <circle cx="1125" cy="654" r="30" fill="#111827" stroke="#FBBF24" stroke-opacity="0.5"/><text x="1125" y="659" fill="#FEF3C7">Qwen</text>
        <circle cx="1342" cy="654" r="30" fill="#111827" stroke="#F472B6" stroke-opacity="0.5"/><text x="1342" y="659" fill="#FCE7F3">More</text>
      </g>
    </g>

    <g id="api-log" font-family="Inter, Arial, sans-serif">
      <rect x="1464" y="386" width="204" height="326" rx="24" fill="#FFFFFF" fill-opacity="0.055" stroke="#FFFFFF" stroke-opacity="0.08"/>
      <text x="1490" y="422" font-size="13" font-weight="900" fill="#E0F2FE">Live API Stream</text>
      <g font-size="12" font-weight="700">
        <rect x="1488" y="448" width="154" height="34" rx="12" fill="#16A34A" fill-opacity="0.12"/>
        <text x="1504" y="470" fill="#BBF7D0">POST /v1/chat</text>
        <rect x="1488" y="494" width="154" height="34" rx="12" fill="#0284C7" fill-opacity="0.14"/>
        <text x="1504" y="516" fill="#BAE6FD">POST /responses</text>
        <rect x="1488" y="540" width="154" height="34" rx="12" fill="#7C3AED" fill-opacity="0.14"/>
        <text x="1504" y="562" fill="#DDD6FE">POST /messages</text>
        <rect x="1488" y="586" width="154" height="34" rx="12" fill="#F59E0B" fill-opacity="0.13"/>
        <text x="1504" y="608" fill="#FDE68A">GET /models</text>
      </g>
      <path d="M1500 654H1644" stroke="#FFFFFF" stroke-opacity="0.1"/>
      <text x="1500" y="684" font-size="12" font-weight="800" fill="#94A3B8">TOKEN COST</text>
      <text x="1500" y="708" font-size="22" font-weight="900" fill="#F8FAFC">$0.00081</text>
    </g>
  </g>

  <rect x="0" y="899" width="1920" height="1" fill="#CBD5E1"/>
</svg>
